<svg id="Layer_1" data-name="Layer 1" xmlns="http://www.w3.org/2000/svg" viewBox="0 0 360 98.98"><defs><style>.cls-1{fill:#254883;}.cls-2{fill:#74839f;}</style></defs><rect class="cls-1" x="135.43" y="42.88" width="14.85" height="55.14"/><path class="cls-1" d="M141.8,221.24v16.92a26.85,26.85,0,0,1-35.19-25.51V183.39h14.84v29.26a12,12,0,0,0,20.35,8.59Z" transform="translate(-10 -140.51)"/><path class="cls-1" d="M312.57,182.38v14.85a26.72,26.72,0,0,0-26.7,26.69v14.6H271V183.39h14.85v8.73A41.34,41.34,0,0,1,312.57,182.38Z" transform="translate(-10 -140.51)"/><path class="cls-1" d="M208.53,182.38v14.85a26.72,26.72,0,0,0-26.7,26.69v14.6H167V183.39h14.85v8.73A41.34,41.34,0,0,1,208.53,182.38Z" transform="translate(-10 -140.51)"/><path class="cls-1" d="M341.45,182.38a28.55,28.55,0,0,0,0,57.1,28.08,28.08,0,0,0,10.07-1.84V220.21a13.69,13.69,0,1,1,3.63-9.28v27.59H370V210.93A28.59,28.59,0,0,0,341.45,182.38Z" transform="translate(-10 -140.51)"/><path class="cls-1" d="M237.41,239.49A28.56,28.56,0,1,1,266,210.93,28.58,28.58,0,0,1,237.41,239.49Zm0-42.26a13.71,13.71,0,1,0,13.7,13.7A13.71,13.71,0,0,0,237.41,197.23Z" transform="translate(-10 -140.51)"/><polygon class="cls-1" points="47.47 61.37 18.84 98 0 98 28.62 61.37 47.47 61.37"/><path class="cls-1" d="M81.43,147.1v24.12l-8.56,10.95a45,45,0,0,0-14.51-2.4H55.9Z" transform="translate(-10 -140.51)"/><path class="cls-2" d="M99.91,140.51v98H85.06V224.94a26.71,26.71,0,0,0-24.81-26.62c-.62,0-1.25-.07-1.89-.07H28.63V183.4H58.36a41.46,41.46,0,0,1,26.7,9.73V140.51Z" transform="translate(-10 -140.51)"/></svg>