<svg width="104" height="72" viewBox="0 0 104 72" xmlns="http://www.w3.org/2000/svg"><g fill="none" fill-rule="evenodd"><path d="M92.555 14.267c7.677 7.02 12.786 15.994 10.663 26.649-2.912 16.02-20.04 26.23-34.48 29.295-12.07 2.967-26.211 2.028-37.787-1.235-11.625-3.684-24.78-11.372-29.617-23.807-3.85-11.595.987-23.214 10.02-30.902C23.892 3.735 39.27-.295 56.374.57c13.45 1.186 25.84 4.944 36.181 13.696" fill="#FFFFFE"/><path d="M92.555 14.267c7.677 7.02 12.786 15.994 10.663 26.649-2.912 16.02-20.04 26.23-34.48 29.295-12.07 2.967-26.211 2.028-37.787-1.235-11.625-3.684-24.78-11.372-29.617-23.807-3.85-11.595.987-23.214 10.02-30.902C23.892 3.735 39.27-.295 56.374.57c13.45 1.186 25.84 4.944 36.181 13.696z"/><path d="M89.84 13.97c6.443 5.166 10.934 11.767 12.07 19.456 1.357 11.891-6.096 21.977-15.87 28.058-13.155 8.01-29.865 10.68-46.203 7.837-10.391-1.804-21.843-8.776-25.101-19.629-3.283-9.542-.89-20.346 6.095-27.367 4.37-4.77 9.601-8.355 14.859-11.273h-.593c-8.934 2.052-17.302 5.735-23.867 13.3-6.12 6.849-6.713 18.394-3.084 26.577.74 1.878 1.924 3.56 2.961 5.29C3.826 49.74-.369 40.52 2.394 30.705 6.22 16.244 21.572 7.493 34.678 4.056 53.805-.641 74.735 2.746 89.84 13.97" fill="#002D62"/><path d="M89.84 13.97c6.443 5.166 10.934 11.767 12.07 19.456 1.357 11.891-6.096 21.977-15.87 28.058-13.155 8.01-29.865 10.68-46.203 7.837-10.391-1.804-21.843-8.776-25.101-19.629-3.283-9.542-.89-20.346 6.095-27.367 4.37-4.77 9.601-8.355 14.859-11.273h-.593c-8.934 2.052-17.302 5.735-23.867 13.3-6.12 6.849-6.713 18.394-3.084 26.577.74 1.878 1.924 3.56 2.961 5.29C3.826 49.74-.369 40.52 2.394 30.705 6.22 16.244 21.572 7.493 34.678 4.056 53.805-.641 74.735 2.746 89.84 13.97z"/><path d="M52.695 11.003c6.985 1.26 13.599 3.412 20.091 5.933 2.098 1.039 3.035 3.51 4.838 5.166 5.38 4.376 11.994 6.503 16.413 12.387 1.58 2.868-.038 5.815-1.704 8.133-3.282 2.867-7.108 4.351-10.736 6.353-3.58 1.682-7.157 3.338-10.835 4.747-.271.148.074.284.246.457l.222.186c5.184-1.755 10.343-3.535 15.402-5.562-.518 1.78-1.48 3.608-2.295 5.388-1.16 1.83-2.092 5.675-8.071 4.921l-14.735-2.3c-7.083 1.755-13.92 4.377-21.744 3.906-2.813-.272-5.43-1.631-7.06-4.153-1.036-1.878-1.677-4.005-1.48-6.353.37.271.642.79.963 1.186 6.96 7.96 19.3 6.502 28.655 4.648 6.441-2.126 12.686-4.697 18.61-8.01 2.295-1.607 3.8-3.93 3.554-6.774-.494-5.834-6.886-9.296-11.427-11.446-3.654-1.286-7.455-2.398-11.625-2.25l9.18-4.153c.642-.173.938.47 1.185.89.346.915.42 2.077-.173 2.892 1.71.409 2.69.644 4.024.965 5.158 1.804 10.563 4.351 13.796 9.419.89 1.631 1.086 3.733.543 5.587l.124.173c2.592-.89 3.523-3.128 4.27-5.81-.074-3.066-3.258-4.87-5.331-6.7-3.357-2.496-6.91-4.474-10.367-6.724-2.171-1.286-2.912-4.104-5.232-5.043-4.171-1.335-9.157-.543-13.624-.346-7.75.84-14.982 2.942-21.25 7.367.69-5.637 1.974-11.15 3.9-16.316.912-2.101 1.974-4.747 4.392-5.587 3.728.123 5.282 4.375 7.281 6.823" fill="#FFFFFE"/><path d="M52.695 11.003c6.985 1.26 13.599 3.412 20.091 5.933 2.098 1.039 3.035 3.51 4.838 5.166 5.38 4.376 11.994 6.503 16.413 12.387 1.58 2.868-.038 5.815-1.704 8.133-3.282 2.867-7.108 4.351-10.736 6.353-3.58 1.682-7.157 3.338-10.835 4.747-.271.148.074.284.246.457l.222.186c5.184-1.755 10.343-3.535 15.402-5.562-.518 1.78-1.48 3.608-2.295 5.388-1.16 1.83-2.092 5.675-8.071 4.921l-14.735-2.3c-7.083 1.755-13.92 4.377-21.744 3.906-2.813-.272-5.43-1.631-7.06-4.153-1.036-1.878-1.677-4.005-1.48-6.353.37.271.642.79.963 1.186 6.96 7.96 19.3 6.502 28.655 4.648 6.441-2.126 12.686-4.697 18.61-8.01 2.295-1.607 3.8-3.93 3.554-6.774-.494-5.834-6.886-9.296-11.427-11.446-3.654-1.286-7.455-2.398-11.625-2.25l9.18-4.153c.642-.173.938.47 1.185.89.346.915.42 2.077-.173 2.892 1.71.409 2.69.644 4.024.965 5.158 1.804 10.563 4.351 13.796 9.419.89 1.631 1.086 3.733.543 5.587l.124.173c2.592-.89 3.523-3.128 4.27-5.81-.074-3.066-3.258-4.87-5.331-6.7-3.357-2.496-6.91-4.474-10.367-6.724-2.171-1.286-2.912-4.104-5.232-5.043-4.171-1.335-9.157-.543-13.624-.346-7.75.84-14.982 2.942-21.25 7.367.69-5.637 1.974-11.15 3.9-16.316.912-2.101 1.974-4.747 4.392-5.587 3.728.123 5.282 4.375 7.281 6.823z"/><path d="M49.906 10.163c.173.345.519.593.47 1.013-4.345 1.805-7.949 6.427-10.243 10.334h-.124c.642-4.624 1.827-9 3.801-13.054.567-.766.913-1.829 1.9-2.2 2.148.148 2.938 2.546 4.196 3.907M95.418 62.729c.161-.008.352.007.55-.062.344-.107.49-.329.452-.635-.039-.406-.32-.498-.443-.498h-.405c-.077 0-.154.039-.154.17v1.025zm0 1.17c0 .185.19.223.36.223v.137h-1.224v-.137c.177 0 .376-.053.376-.2v-2.204c0-.222-.032-.23-.337-.23v-.138h1.276c.199 0 .413.008.589.077.122.046.306.146.397.306.2.352.016.742-.153.889a.905.905 0 0 1-.534.213l.916 1.18c.084.107.177.107.275.107v.137h-.725l-1.017-1.355h-.2v.995zm.39-3.3a2.327 2.327 0 0 0-2.323 2.344 2.32 2.32 0 0 0 2.331 2.327c1.284 0 2.33-1.041 2.33-2.335a2.34 2.34 0 0 0-2.338-2.336zm.008 4.977a2.634 2.634 0 0 1-2.637-2.641 2.634 2.634 0 0 1 2.637-2.641 2.645 2.645 0 0 1 2.637 2.64 2.644 2.644 0 0 1-2.637 2.642z" fill="#002D62"/></g></svg>