<?xml version="1.0" encoding="UTF-8" standalone="no"?>
<!DOCTYPE svg PUBLIC "-//W3C//DTD SVG 20010904//EN"
              "http://www.w3.org/TR/2001/REC-SVG-20010904/DTD/svg10.dtd">

<svg xmlns="http://www.w3.org/2000/svg"
     width="11.6667in" height="11.7778in"
     viewBox="0 0 840 848">
  <path id="Selection"
        fill="none" stroke="black" stroke-width="1"
        d="M 411.00,40.42
           C 411.00,40.42 396.00,41.09 396.00,41.09
             396.00,41.09 373.00,43.17 373.00,43.17
             356.51,44.79 328.02,50.97 312.00,55.72
             208.62,86.41 120.04,160.08 73.78,258.00
             55.20,297.32 43.02,339.71 38.83,383.00
             38.83,383.00 37.00,403.00 37.00,403.00
             37.00,403.00 36.00,423.00 36.00,423.00
             36.00,423.00 37.00,444.00 37.00,444.00
             37.00,444.00 37.91,455.00 37.91,455.00
             39.37,474.97 42.49,494.50 47.12,514.00
             62.28,577.87 93.26,635.83 137.91,684.00
             137.91,684.00 149.00,695.99 149.00,695.99
             189.90,736.08 236.28,765.42 290.00,785.05
             318.59,795.50 348.73,802.24 379.00,805.17
             379.00,805.17 399.00,807.00 399.00,807.00
             399.00,807.00 417.00,808.00 417.00,808.00
             417.00,808.00 423.00,808.00 423.00,808.00
             423.00,808.00 441.00,807.00 441.00,807.00
             441.00,807.00 451.00,806.09 451.00,806.09
             480.46,803.94 509.83,798.29 538.00,789.26
             650.46,753.20 744.89,662.37 782.49,550.00
             791.76,522.27 798.35,494.12 801.17,465.00
             801.17,465.00 803.00,442.00 803.00,442.00
             803.00,442.00 804.00,427.00 804.00,427.00
             804.00,427.00 803.00,402.00 803.00,402.00
             803.00,402.00 801.17,383.00 801.17,383.00
             798.54,355.84 792.84,328.87 784.07,303.00
             778.78,287.36 772.94,271.88 765.74,257.00
             717.59,157.51 627.70,82.62 521.00,53.85
             498.05,47.66 474.68,43.64 451.00,41.91
             451.00,41.91 441.00,41.00 441.00,41.00
             430.98,40.89 421.01,39.20 411.00,40.42 Z
           M 470.00,82.00
           C 470.00,82.00 470.00,84.00 470.00,84.00
             462.96,85.94 460.86,83.21 457.02,84.61
             453.06,86.06 452.23,90.11 456.08,91.10
             456.08,91.10 471.00,90.00 471.00,90.00
             471.00,90.00 471.00,93.00 471.00,93.00
             468.56,93.28 467.20,93.34 465.02,94.74
             463.69,95.58 462.39,96.81 461.42,98.04
             453.10,108.60 467.78,114.38 472.04,120.17
             472.04,120.17 476.77,128.00 476.77,128.00
             481.95,135.45 489.93,141.89 499.00,143.94
             507.55,145.38 511.54,143.29 518.00,143.94
             525.56,145.23 526.19,151.06 531.00,152.04
             534.32,152.71 537.15,149.82 538.26,146.98
             540.67,140.87 537.33,135.65 536.00,130.00
             545.22,126.55 535.42,121.75 542.28,115.43
             546.55,111.49 550.35,114.49 557.00,111.16
             563.20,108.06 564.48,104.15 567.37,102.01
             567.37,102.01 575.00,98.47 575.00,98.47
             577.03,97.31 578.53,95.77 581.00,95.50
             584.25,95.14 589.10,98.25 592.00,99.74
             592.00,99.74 619.00,115.42 619.00,115.42
             647.34,133.16 673.91,157.07 696.05,182.00
             703.12,189.96 718.53,207.15 721.00,217.00
             721.00,217.00 710.00,217.00 710.00,217.00
             714.01,225.04 708.42,222.22 704.41,225.50
             704.41,225.50 700.51,229.86 700.51,229.86
             696.10,233.34 690.95,232.30 686.00,231.00
             686.00,231.00 685.00,235.00 685.00,235.00
             693.32,235.94 698.73,242.30 701.46,250.00
             702.04,252.41 703.08,256.24 701.46,258.57
             699.75,261.76 692.04,261.51 689.22,259.83
             687.43,258.76 687.01,257.66 686.00,256.00
             679.18,258.54 677.12,254.82 674.70,257.52
             672.63,259.83 675.39,268.87 675.49,272.00
             675.63,276.18 673.28,278.25 674.02,282.00
             674.31,283.45 677.61,293.74 678.35,294.40
             680.23,296.09 682.99,295.81 686.00,297.15
             687.54,297.84 689.34,299.25 691.00,299.47
             693.29,299.77 694.93,298.33 697.00,297.75
             701.05,296.62 704.19,298.89 707.57,295.57
             711.02,292.18 709.54,285.73 711.70,281.10
             713.35,277.57 716.01,277.18 718.00,273.90
             718.95,272.33 719.21,269.93 720.59,269.17
             722.72,268.00 724.68,270.47 728.00,269.79
             730.14,269.64 733.33,266.91 736.57,269.79
             738.60,271.28 739.56,275.51 740.83,278.00
             742.64,281.51 744.35,283.19 747.00,286.00
             752.18,291.48 755.75,295.35 757.00,303.00
             757.00,303.00 761.00,298.00 761.00,298.00
             761.00,298.00 744.02,276.00 744.02,276.00
             744.02,276.00 744.02,271.00 744.02,271.00
             747.68,274.03 758.54,285.05 760.91,289.00
             764.20,294.51 770.19,313.15 772.14,320.00
             773.64,325.28 778.29,337.20 770.94,339.95
             765.90,341.84 760.78,335.97 757.00,333.15
             754.18,331.06 752.00,329.76 749.79,326.91
             745.44,321.30 742.39,306.02 726.00,304.34
             718.71,303.59 713.22,308.42 709.00,309.50
             702.45,311.18 695.32,305.55 692.31,306.51
             690.03,307.24 690.34,310.13 688.41,312.83
             686.24,315.86 681.63,318.20 679.13,325.00
             677.05,330.66 679.12,333.66 676.40,338.00
             676.40,338.00 667.44,349.00 667.44,349.00
             667.44,349.00 656.99,365.00 656.99,365.00
             653.38,369.60 648.12,374.58 646.13,380.00
             641.34,393.05 650.77,397.67 651.80,408.00
             652.60,415.94 647.69,421.94 647.28,424.00
             646.71,426.85 648.63,428.27 648.79,431.00
             648.92,432.99 647.76,434.90 648.12,437.00
             648.61,439.82 653.65,445.29 655.56,448.00
             667.80,465.35 663.10,459.17 678.00,473.09
             680.88,475.78 685.32,481.70 689.04,482.28
             691.17,482.62 696.48,481.41 699.00,481.17
             707.86,480.31 707.96,481.45 719.00,479.19
             719.00,479.19 733.00,475.32 733.00,475.32
             739.37,474.62 749.40,479.84 749.85,487.00
             750.15,491.73 747.46,495.65 747.10,501.00
             746.41,511.03 753.81,517.99 754.00,534.00
             754.04,538.11 754.25,543.06 753.24,547.00
             753.24,547.00 741.72,574.00 741.72,574.00
             740.32,578.67 737.63,592.18 737.17,597.00
             737.17,597.00 736.50,609.00 736.50,609.00
             735.43,612.94 727.32,625.00 724.65,629.00
             672.49,707.10 590.47,762.22 499.00,782.42
             480.76,786.45 462.60,788.81 444.00,790.09
             444.00,790.09 434.00,791.00 434.00,791.00
             434.00,791.00 409.00,791.00 409.00,791.00
             409.00,791.00 389.15,789.40 389.15,789.40
             387.53,788.70 386.72,787.65 386.33,785.94
             385.23,781.09 390.06,776.28 394.00,774.31
             394.00,774.31 400.00,772.39 400.00,772.39
             406.80,769.90 407.05,765.44 413.00,763.15
             420.34,760.33 423.11,766.37 430.83,758.90
             430.83,758.90 436.09,753.64 436.09,753.64
             436.09,753.64 454.00,743.79 454.00,743.79
             461.80,738.29 463.15,734.89 469.09,729.10
             469.09,729.10 474.85,724.41 474.85,724.41
             480.41,719.34 476.42,713.30 484.09,708.14
             486.22,706.72 502.03,701.83 505.00,701.32
             510.41,700.40 514.06,701.33 518.47,696.66
             521.28,693.68 522.38,689.47 524.56,686.00
             530.39,676.69 533.61,674.42 537.25,663.00
             537.25,663.00 540.88,647.00 540.88,647.00
             545.11,636.56 558.24,635.38 559.83,620.00
             560.04,617.98 560.06,614.99 559.26,613.10
             556.80,607.28 551.17,609.48 544.00,605.16
             532.04,597.97 530.04,600.88 519.00,596.77
             519.00,596.77 495.00,586.15 495.00,586.15
             491.40,585.14 487.75,584.21 484.00,584.04
             482.06,583.95 477.93,584.20 476.32,583.40
             473.64,582.07 474.66,579.37 474.16,577.00
             474.16,577.00 469.18,566.00 469.18,566.00
             462.41,552.97 455.05,552.17 442.00,552.00
             427.07,551.80 426.93,542.28 419.00,538.17
             416.25,536.75 412.92,537.05 410.39,535.15
             407.68,533.12 407.79,530.70 403.90,528.63
             402.12,527.69 394.89,524.98 393.00,524.85
             389.82,524.64 387.47,526.22 384.00,525.55
             380.80,524.92 378.70,522.73 375.00,522.33
             375.00,522.33 368.00,522.33 368.00,522.33
             364.40,521.79 362.29,518.91 359.28,518.17
             355.18,517.16 350.65,521.17 349.91,525.01
             349.47,526.68 349.80,528.34 349.91,530.00
             349.91,530.00 349.00,531.00 349.00,531.00
             336.34,526.53 347.68,514.21 335.96,505.51
             327.07,498.92 320.32,510.10 311.00,504.26
             302.80,499.12 302.50,490.64 303.09,482.00
             303.41,477.21 304.80,474.60 301.99,470.02
             295.71,459.76 285.95,466.57 278.06,462.57
             273.38,460.20 273.91,455.49 274.01,451.00
             274.25,441.13 277.83,436.83 283.00,429.00
             276.90,427.52 267.98,427.21 264.01,433.11
             261.25,437.20 262.43,442.00 257.87,445.26
             254.11,447.96 244.46,447.48 240.00,446.67
             234.27,445.63 229.98,441.53 226.61,437.00
             221.25,429.80 217.37,418.99 219.71,410.00
             220.84,405.64 222.81,403.85 224.39,400.00
             226.24,395.53 226.04,393.65 229.11,389.00
             236.03,378.51 245.54,377.14 257.00,377.00
             269.97,376.84 272.58,370.38 281.00,369.64
             287.70,369.04 290.86,372.88 295.00,373.27
             297.89,373.53 301.05,371.67 304.66,374.10
             310.48,378.01 307.77,386.64 314.22,396.00
             319.65,403.86 324.53,403.57 323.83,395.00
             322.97,384.51 315.08,371.90 318.35,362.00
             320.52,355.40 326.86,352.89 332.00,349.08
             336.47,345.76 339.17,342.59 342.25,338.00
             350.20,326.18 349.09,316.77 351.69,312.10
             354.04,307.87 357.09,308.04 360.32,303.90
             362.08,301.63 362.21,300.20 365.13,297.09
             365.13,297.09 377.67,285.00 377.67,285.00
             381.92,279.87 382.59,276.06 389.00,272.36
             395.16,268.82 398.79,269.72 404.00,268.21
             411.63,266.01 414.30,261.61 423.00,264.00
             418.36,269.17 413.63,268.79 412.48,272.16
             411.84,274.06 413.33,276.06 415.36,275.45
             417.36,274.86 418.96,271.61 423.01,269.44
             427.32,267.13 434.05,266.89 439.00,266.00
             435.23,259.31 431.63,263.91 425.04,260.23
             419.68,257.24 420.87,254.11 413.00,248.00
             415.95,245.23 419.07,244.46 419.66,242.74
             421.88,236.35 408.36,239.31 406.00,239.90
             392.84,243.16 392.96,249.76 384.00,252.00
             385.97,246.24 388.49,244.84 393.00,241.00
             401.29,233.94 414.09,229.01 425.00,229.00
             425.00,229.00 442.00,229.67 442.00,229.67
             446.22,228.94 448.37,227.12 452.00,225.37
             461.03,221.01 471.55,225.50 471.98,210.00
             472.27,199.71 467.98,188.45 456.00,188.06
             449.55,187.85 442.89,192.18 437.14,187.49
             434.14,185.04 433.46,181.11 431.36,178.00
             431.36,178.00 426.79,172.00 426.79,172.00
             425.54,170.15 424.28,167.22 421.90,166.60
             418.29,165.68 416.02,170.22 412.91,172.26
             409.52,174.49 401.75,174.59 398.02,173.11
             390.70,170.21 394.31,164.70 387.94,159.63
             377.87,151.62 373.24,151.02 361.00,151.00
             358.51,151.00 351.25,150.13 349.46,151.69
             347.14,154.23 350.60,162.69 349.46,167.00
             348.42,169.55 346.11,171.72 346.18,173.99
             346.26,176.63 349.07,178.41 350.57,180.28
             352.80,183.06 353.50,186.55 352.57,190.00
             350.78,196.63 343.78,198.24 340.65,202.21
             337.66,206.01 338.89,209.62 338.99,214.00
             339.10,219.34 338.86,226.65 331.99,227.50
             329.84,227.77 328.15,227.10 326.64,225.57
             319.41,218.24 325.58,204.07 312.00,197.57
             306.03,194.71 301.11,197.15 295.00,196.96
             289.35,196.78 276.81,194.42 272.00,191.64
             263.25,186.56 259.70,176.38 263.48,167.00
             264.98,163.29 270.83,153.44 274.10,151.36
             282.12,146.27 291.31,149.23 300.00,139.00
             300.00,139.00 294.00,140.00 294.00,140.00
             296.09,137.26 298.24,137.01 300.68,134.74
             303.11,132.48 304.61,129.43 308.04,128.06
             310.47,127.31 312.53,128.12 315.00,128.06
             322.10,127.36 327.60,124.60 332.00,119.00
             328.75,117.27 324.39,113.34 321.00,113.40
             313.24,113.54 312.29,120.00 309.69,121.91
             306.23,124.46 301.87,123.93 298.00,123.00
             298.00,123.00 301.00,117.00 301.00,117.00
             294.33,115.89 295.01,118.42 291.00,118.41
             287.35,118.40 284.52,114.53 280.21,117.60
             277.97,119.20 270.77,130.28 265.91,132.10
             259.85,134.74 255.52,130.00 248.00,132.10
             248.00,132.10 237.00,135.53 237.00,135.53
             230.43,136.77 228.62,134.89 219.00,138.38
             207.45,142.57 193.65,150.59 181.00,147.00
             181.00,147.00 181.00,145.00 181.00,145.00
             181.00,145.00 223.00,114.05 223.00,114.05
             262.71,88.90 309.58,70.38 356.00,62.59
             356.00,62.59 389.00,58.00 389.00,58.00
             389.00,58.00 397.00,58.00 397.00,58.00
             400.53,57.50 402.14,56.87 406.00,57.09
             417.30,57.73 431.80,59.36 442.00,64.32
             450.20,68.32 450.68,72.33 456.04,76.20
             460.11,79.14 465.30,79.72 470.00,82.00 Z
           M 318.00,97.00
           C 318.00,97.00 320.00,102.00 320.00,102.00
             320.00,102.00 315.00,102.00 315.00,102.00
             315.00,102.00 312.00,91.00 312.00,91.00
             305.31,92.21 296.52,94.57 298.00,103.00
             298.00,103.00 307.00,102.00 307.00,102.00
             304.66,105.50 302.95,104.95 299.00,105.00
             299.00,105.00 299.00,107.00 299.00,107.00
             299.00,107.00 331.00,105.78 331.00,105.78
             335.35,105.01 341.34,100.83 346.00,100.63
             348.96,100.50 361.00,105.52 364.00,107.14
             367.34,108.95 375.71,112.15 377.37,115.11
             380.09,119.95 372.35,122.28 371.47,124.52
             370.77,126.31 372.23,128.47 373.00,130.00
             373.00,130.00 361.00,132.12 361.00,132.12
             354.10,132.91 355.76,131.05 348.00,135.00
             356.76,141.48 362.51,132.69 370.00,134.29
             378.64,136.13 382.34,141.81 384.37,142.99
             386.53,144.25 388.65,143.77 390.91,144.58
             390.91,144.58 396.17,147.42 396.17,147.42
             396.17,147.42 412.00,151.00 412.00,151.00
             412.00,151.00 397.00,140.00 397.00,140.00
             397.00,140.00 418.00,144.00 418.00,144.00
             418.00,144.00 419.00,139.00 419.00,139.00
             412.03,130.36 397.88,131.31 403.00,122.00
             403.00,122.00 404.00,125.00 404.00,125.00
             404.00,125.00 405.00,121.00 405.00,121.00
             405.00,121.00 417.00,124.00 417.00,124.00
             418.53,127.99 421.14,128.60 425.00,130.00
             428.80,123.54 432.30,128.94 435.00,120.00
             424.88,119.31 419.55,115.33 413.00,114.00
             411.24,113.65 402.26,111.28 401.41,110.16
             399.16,107.22 403.00,103.67 405.00,102.00
             401.06,100.44 398.02,101.02 394.00,102.00
             394.00,102.00 394.00,98.00 394.00,98.00
             384.62,98.55 386.39,95.86 381.00,94.86
             381.00,94.86 366.00,94.86 366.00,94.86
             366.00,94.86 369.00,92.00 369.00,92.00
             362.22,85.32 355.94,92.43 350.00,93.83
             345.83,94.81 347.11,92.08 338.00,95.00
             337.75,93.32 337.61,89.86 336.33,88.65
             334.83,87.40 332.70,88.26 331.00,88.65
             321.89,90.20 324.17,89.26 318.00,97.00 Z
           M 700.00,222.00
           C 698.21,213.31 697.73,216.15 694.06,209.96
             692.03,206.56 691.91,204.91 689.07,201.00
             689.07,201.00 678.41,187.22 678.41,187.22
             676.66,184.48 676.09,184.98 674.34,183.20
             672.67,181.51 671.21,176.55 668.98,178.88
             667.49,180.42 668.14,184.14 668.98,185.83
             668.98,185.83 675.51,195.40 675.51,195.40
             675.51,195.40 680.22,199.68 680.22,199.68
             684.07,204.61 678.18,207.23 680.22,214.96
             680.93,216.68 681.67,217.87 683.23,218.83
             684.65,219.70 697.66,221.80 700.00,222.00 Z
           M 661.00,191.00
           C 661.00,191.00 661.00,195.00 661.00,195.00
             661.00,195.00 656.00,193.00 656.00,193.00
             656.00,193.00 660.02,206.53 660.02,206.53
             661.90,209.04 669.40,208.44 670.85,205.68
             672.18,203.13 668.79,194.61 666.58,192.93
             664.99,191.72 662.90,191.41 661.00,191.00 Z
           M 164.00,419.00
           C 154.64,403.65 160.11,405.82 154.10,395.00
             149.74,387.16 144.10,385.19 143.18,375.00
             142.98,372.83 142.98,369.30 145.30,368.17
             149.53,366.10 151.91,376.23 153.26,379.00
             157.60,387.91 160.04,388.49 163.31,394.00
             165.16,397.13 164.86,398.93 167.31,401.83
             170.36,405.45 174.80,407.20 180.10,417.00
             184.67,425.44 183.09,433.64 190.10,440.96
             195.44,446.52 209.40,450.74 217.00,454.78
             220.27,456.52 225.88,460.77 229.00,461.25
             232.98,461.87 236.60,458.94 241.98,460.65
             248.24,462.64 248.39,468.56 256.00,472.56
             261.14,475.26 271.24,475.60 277.98,479.41
             286.76,484.37 283.91,492.36 291.10,498.61
             294.65,501.70 301.62,504.30 306.00,506.31
             313.60,509.80 316.13,511.46 323.00,516.00
             323.68,513.34 324.07,509.51 326.31,507.75
             329.79,505.02 336.87,507.35 337.23,512.02
             337.68,517.95 327.76,519.53 324.27,522.56
             321.84,524.67 321.45,527.34 319.92,530.00
             314.74,539.04 312.06,537.44 312.00,550.00
             311.97,555.43 312.80,562.24 309.99,567.00
             309.99,567.00 298.58,580.14 298.58,580.14
             298.58,580.14 295.09,591.96 295.09,591.96
             295.33,594.81 298.39,596.34 298.37,599.05
             298.35,602.26 294.36,603.71 293.77,605.92
             292.62,608.44 295.11,608.57 293.77,615.00
             308.80,621.70 307.81,626.79 314.32,639.00
             316.72,643.50 320.15,648.10 323.44,652.00
             328.93,658.52 334.77,663.45 342.00,667.94
             349.99,672.89 358.36,673.60 361.63,684.00
             362.11,686.57 362.00,689.35 361.63,692.00
             361.63,692.00 361.63,710.00 361.63,710.00
             360.26,717.09 357.13,722.50 356.44,726.00
             355.58,729.80 356.25,733.24 356.44,737.00
             357.12,747.04 350.46,752.12 351.34,761.00
             352.10,768.67 356.60,772.41 352.00,785.00
             352.00,785.00 313.00,775.28 313.00,775.28
             287.21,767.52 258.21,754.80 235.00,741.19
             146.06,689.05 83.78,603.53 61.58,503.00
             57.55,484.76 55.19,466.60 53.91,448.00
             53.91,448.00 53.00,438.00 53.00,438.00
             53.00,438.00 53.00,412.00 53.00,412.00
             53.00,412.00 53.91,400.00 53.91,400.00
             56.55,361.62 64.38,324.85 78.60,289.00
             83.18,277.45 88.18,265.90 94.14,255.00
             95.81,251.95 98.76,245.53 100.79,243.23
             106.34,236.93 109.06,243.17 110.86,248.00
             115.01,259.11 119.94,262.57 120.00,276.00
             120.00,276.00 120.00,280.00 120.00,280.00
             119.89,289.18 117.38,290.10 115.50,298.00
             113.95,304.52 113.93,309.40 114.00,316.00
             114.13,326.48 116.91,329.87 119.10,339.00
             119.94,342.49 119.80,347.08 121.74,349.89
             124.87,354.43 130.89,354.46 133.83,360.04
             135.72,363.63 134.28,366.73 136.11,372.00
             138.03,377.54 141.31,379.78 142.99,384.00
             144.44,387.61 143.54,390.23 145.02,392.79
             146.55,395.44 149.41,396.15 151.73,400.04
             154.96,405.47 153.84,411.56 164.00,419.00 Z
           M 298.00,425.00
           C 298.00,425.00 308.72,420.22 308.72,420.22
             308.72,420.22 316.00,422.13 316.00,422.13
             316.00,422.13 330.83,427.16 330.83,427.16
             330.83,427.16 334.28,429.62 334.28,429.62
             334.28,429.62 339.25,434.22 339.25,434.22
             339.25,434.22 339.25,438.00 339.25,438.00
             339.25,438.00 359.00,436.00 359.00,436.00
             359.00,436.00 344.01,429.24 344.01,429.24
             344.01,429.24 336.83,424.64 336.83,424.64
             330.93,421.73 321.53,418.83 315.00,417.72
             308.26,416.56 300.28,417.67 298.00,425.00 Z
           M 365.00,438.00
           C 365.00,438.00 370.00,446.00 370.00,446.00
             370.00,446.00 359.00,446.00 359.00,446.00
             361.92,449.26 369.76,448.00 374.00,448.00
             374.00,448.00 374.00,452.00 374.00,452.00
             374.00,452.00 378.00,452.00 378.00,452.00
             381.28,446.18 388.23,446.98 394.00,448.00
             389.74,437.02 374.51,438.41 365.00,438.00 Z
           M 403.00,447.00
           C 403.00,447.00 404.00,450.00 404.00,450.00
             404.00,450.00 410.00,449.00 410.00,449.00
             410.00,449.00 410.00,447.00 410.00,447.00
             410.00,447.00 403.00,447.00 403.00,447.00 Z" />
</svg>
